<?xml version="1.0" encoding="utf-8"?>
<!-- Generator: Adobe Illustrator 15.0.0, SVG Export Plug-In . SVG Version: 6.00 Build 0)  -->
<!DOCTYPE svg PUBLIC "-//W3C//DTD SVG 1.1//EN" "http://www.w3.org/Graphics/SVG/1.1/DTD/svg11.dtd">
<svg version="1.1" id="Capa_1" xmlns="http://www.w3.org/2000/svg" xmlns:xlink="http://www.w3.org/1999/xlink" x="0px" y="0px"
	 width="56px" height="56px" viewBox="0 0 56 56" enable-background="new 0 0 56 56" xml:space="preserve">
<g>
	<g>
		<rect x="0.923" y="0.923" fill="none" stroke="#FFC105" stroke-miterlimit="10" width="54.154" height="54.154"/>
	</g>
	<g>
		<g>
			<g>
				<path fill="#FFC105" d="M36.72,13.28c-1.074-1.074-2.271-1.62-3.556-1.62c-2.149,0-3.728,1.554-3.794,1.62L9.982,32.668
					c-0.069,0.069-0.121,0.153-0.151,0.246l-3.232,9.693c-0.075,0.225-0.017,0.475,0.152,0.643c0.12,0.12,0.28,0.184,0.444,0.184
					c0.066,0,0.134-0.01,0.198-0.031l9.693-3.232c0.092-0.03,0.177-0.082,0.245-0.151L36.72,20.63
					c0.037-0.037,0.918-0.928,1.363-2.265C38.508,17.092,38.616,15.177,36.72,13.28z M11.315,33.113l15.269-15.27l5.572,5.573
					L16.888,38.686L11.315,33.113z M10.701,34.275l5.023,5.024l-3.84,1.28c-0.255-0.539-0.599-1.033-1.015-1.449
					s-0.909-0.76-1.449-1.015L10.701,34.275z M48.676,44.676H6.751V43.25h41.925V44.676z"/>
			</g>
		</g>
	</g>
</g>
</svg>
