<?xml version="1.0" encoding="utf-8"?>
<!-- Generator: Adobe Illustrator 15.0.0, SVG Export Plug-In . SVG Version: 6.00 Build 0)  -->
<!DOCTYPE svg PUBLIC "-//W3C//DTD SVG 1.1//EN" "http://www.w3.org/Graphics/SVG/1.1/DTD/svg11.dtd">
<svg version="1.1" id="Capa_1" xmlns="http://www.w3.org/2000/svg" xmlns:xlink="http://www.w3.org/1999/xlink" x="0px" y="0px"
	 width="34px" height="34px" viewBox="0 0 34 34" enable-background="new 0 0 34 34" xml:space="preserve">
<g>
	<g>
		<path fill="#FFFFFF" d="M28.159,25.112l-1.172-3.846h-5.891l-1.171,3.846h-3.691l5.702-16.225h4.188l5.726,16.225H28.159z
			 M26.17,18.393c-1.083-3.485-1.693-5.456-1.829-5.913c-0.137-0.456-0.234-0.817-0.293-1.082c-0.243,0.942-0.939,3.274-2.089,6.995
			H26.17z"/>
	</g>
	<g>
		<path fill="#FFFFFF" d="M9.575,25.112l-0.729-2.396H5.178l-0.729,2.396H2.149L5.7,15.01h2.608l3.564,10.103H9.575z M8.336,20.928
			c-0.674-2.17-1.054-3.397-1.139-3.682s-0.146-0.509-0.183-0.675c-0.151,0.588-0.585,2.039-1.301,4.356H8.336z"/>
	</g>
</g>
</svg>
