<?xml version="1.0" encoding="utf-8"?>
<!-- Generator: Adobe Illustrator 15.0.0, SVG Export Plug-In . SVG Version: 6.00 Build 0)  -->
<!DOCTYPE svg PUBLIC "-//W3C//DTD SVG 1.1//EN" "http://www.w3.org/Graphics/SVG/1.1/DTD/svg11.dtd">
<svg version="1.1" id="Capa_1" xmlns="http://www.w3.org/2000/svg" xmlns:xlink="http://www.w3.org/1999/xlink" x="0px" y="0px"
	 width="56px" height="56px" viewBox="0 0 56 56" enable-background="new 0 0 56 56" xml:space="preserve">
<g>
	<g>
		<g>
			<g>
				<g>
					<path fill="#FFC105" d="M39.667,26.771c-0.347,0-0.628,0.281-0.628,0.628v12.515c0,0.237-0.066,5.801-5.801,5.801H20.381
						c-0.236,0-5.8-0.066-5.8-5.801V20.63c0.001-0.237,0.09-5.802,5.8-5.802h12.857c0.347,0,0.628-0.281,0.628-0.628
						c0-0.348-0.281-0.629-0.628-0.629H20.381c-6.976,0-7.057,6.987-7.057,7.058v19.285c0,6.977,6.986,7.058,7.057,7.058h12.857
						c6.977,0,7.058-6.987,7.058-7.058V27.399C40.296,27.053,40.014,26.771,39.667,26.771z"/>
					<path fill="#FFC105" d="M34.844,39.284H18.772c-0.348,0-0.629,0.281-0.629,0.628c0,0.348,0.281,0.629,0.629,0.629h16.071
						c0.347,0,0.628-0.281,0.628-0.629C35.472,39.565,35.19,39.284,34.844,39.284z"/>
					<path fill="#FFC105" d="M34.844,34.463H18.772c-0.348,0-0.629,0.281-0.629,0.629c0,0.346,0.281,0.628,0.629,0.628h16.071
						c0.347,0,0.628-0.282,0.628-0.628C35.472,34.744,35.19,34.463,34.844,34.463z"/>
					<path fill="#FFC105" d="M45.226,11.853c-0.966-0.966-2.249-1.497-3.615-1.497s-2.65,0.531-3.616,1.497l-8.145,8.146H18.772
						c-0.348,0-0.629,0.281-0.629,0.629c0,0.347,0.281,0.628,0.629,0.628h9.82l-1.17,1.17c-0.097,0.096-0.158,0.221-0.178,0.355
						l-0.291,2.039h-8.182c-0.348,0-0.629,0.281-0.629,0.629c0,0.347,0.281,0.628,0.629,0.628h8.002l-0.51,3.565h-7.492
						c-0.348,0-0.629,0.281-0.629,0.628c0,0.348,0.281,0.629,0.629,0.629h8.037c0.029,0,0.059-0.002,0.089-0.006l7.4-1.059
						c0.135-0.02,0.26-0.082,0.355-0.178l10.571-10.571c0.967-0.966,1.498-2.25,1.498-3.616S46.192,12.818,45.226,11.853z
						 M44.337,18.196L33.914,28.619l-6.364,0.91l0.91-6.364l10.423-10.424c0.729-0.728,1.697-1.129,2.728-1.129
						c1.029,0,1.998,0.401,2.727,1.129c0.729,0.729,1.13,1.697,1.13,2.728S45.065,17.467,44.337,18.196z"/>
				</g>
			</g>
		</g>
	</g>
	<g>
		<rect x="0.923" y="0.923" fill="none" stroke="#FFC105" stroke-miterlimit="10" width="54.154" height="54.154"/>
	</g>
</g>
</svg>
