<?xml version="1.0" encoding="utf-8"?>
<!-- Generator: Adobe Illustrator 15.0.0, SVG Export Plug-In . SVG Version: 6.00 Build 0)  -->
<!DOCTYPE svg PUBLIC "-//W3C//DTD SVG 1.1//EN" "http://www.w3.org/Graphics/SVG/1.1/DTD/svg11.dtd">
<svg version="1.1" id="Capa_1" xmlns="http://www.w3.org/2000/svg" xmlns:xlink="http://www.w3.org/1999/xlink" x="0px" y="0px"
	 width="78px" height="24px" viewBox="0 0 78 24" enable-background="new 0 0 78 24" xml:space="preserve">
<g>
	<rect x="-0.257" y="-0.261" fill="#8FFFFF" width="78.515" height="24.523"/>
	<g>
		<g>
			<path fill="#121E4A" d="M17.041,8.057c-0.795,0-1.41,0.301-1.846,0.899c-0.437,0.599-0.654,1.435-0.654,2.505
				c0,2.228,0.833,3.343,2.5,3.343c0.698,0,1.545-0.176,2.54-0.527v1.777c-0.817,0.342-1.73,0.514-2.738,0.514
				c-1.448,0-2.556-0.441-3.323-1.322c-0.767-0.883-1.15-2.148-1.15-3.798c0-1.039,0.188-1.949,0.565-2.73
				c0.376-0.781,0.918-1.381,1.624-1.798s1.533-0.626,2.482-0.626c0.967,0,1.938,0.235,2.914,0.705l-0.681,1.723
				c-0.372-0.178-0.747-0.333-1.124-0.465C17.773,8.124,17.403,8.057,17.041,8.057z"/>
			<path fill="#121E4A" d="M26.375,16.568c-1.226,0-2.184-0.34-2.874-1.02c-0.689-0.678-1.034-1.641-1.034-2.884
				c0-1.28,0.318-2.27,0.956-2.97s1.52-1.05,2.646-1.05c1.076,0,1.914,0.309,2.514,0.924c0.599,0.615,0.898,1.465,0.898,2.549v1.011
				h-4.91c0.023,0.594,0.198,1.057,0.524,1.389c0.327,0.332,0.785,0.498,1.376,0.498c0.458,0,0.892-0.047,1.301-0.143
				c0.408-0.096,0.835-0.248,1.28-0.459v1.613c-0.363,0.184-0.752,0.318-1.165,0.408C27.473,16.523,26.969,16.568,26.375,16.568z
				 M26.082,10.129c-0.44,0-0.785,0.14-1.035,0.42c-0.249,0.28-0.393,0.678-0.429,1.193h2.915c-0.01-0.516-0.144-0.913-0.402-1.193
				S26.522,10.129,26.082,10.129z"/>
			<path fill="#121E4A" d="M36.813,8.645c0.281,0,0.516,0.021,0.701,0.063l-0.156,1.955c-0.168-0.046-0.372-0.068-0.613-0.068
				c-0.662,0-1.179,0.17-1.549,0.512s-0.555,0.82-0.555,1.436v3.89h-2.077V8.79h1.573l0.306,1.285h0.103
				c0.236-0.429,0.555-0.773,0.957-1.036C35.904,8.776,36.341,8.645,36.813,8.645z"/>
			<path fill="#121E4A" d="M44.541,8.645c0.281,0,0.516,0.021,0.701,0.063l-0.156,1.955c-0.168-0.046-0.371-0.068-0.613-0.068
				c-0.662,0-1.178,0.17-1.549,0.512c-0.369,0.342-0.555,0.82-0.555,1.436v3.89h-2.076V8.79h1.572l0.307,1.285h0.102
				c0.236-0.429,0.555-0.773,0.957-1.036S44.07,8.645,44.541,8.645z"/>
			<path fill="#121E4A" d="M52.855,16.432l-0.402-1.039h-0.055c-0.35,0.441-0.709,0.748-1.08,0.92
				c-0.369,0.17-0.852,0.256-1.447,0.256c-0.73,0-1.305-0.209-1.725-0.629s-0.631-1.016-0.631-1.791c0-0.811,0.283-1.41,0.848-1.794
				c0.566-0.385,1.418-0.598,2.557-0.639l1.322-0.041v-0.336c0-0.774-0.395-1.162-1.186-1.162c-0.607,0-1.322,0.186-2.145,0.555
				l-0.688-1.408c0.875-0.461,1.848-0.691,2.914-0.691c1.021,0,1.805,0.224,2.35,0.67c0.545,0.447,0.816,1.126,0.816,2.037v5.093
				H52.855z M52.242,12.891l-0.805,0.027c-0.604,0.018-1.053,0.126-1.348,0.328s-0.443,0.506-0.443,0.916
				c0,0.588,0.336,0.881,1.008,0.881c0.482,0,0.867-0.139,1.154-0.416c0.289-0.277,0.434-0.646,0.434-1.107V12.891z"/>
			<path fill="#121E4A" d="M62.088,8.645c0.281,0,0.516,0.021,0.701,0.063l-0.156,1.955c-0.168-0.046-0.373-0.068-0.613-0.068
				c-0.662,0-1.18,0.17-1.549,0.512c-0.371,0.342-0.555,0.82-0.555,1.436v3.89h-2.078V8.79h1.574l0.305,1.285h0.104
				c0.236-0.429,0.555-0.773,0.957-1.036C61.178,8.776,61.615,8.645,62.088,8.645z"/>
		</g>
	</g>
</g>
</svg>
