<?xml version="1.0" encoding="utf-8"?>
<!-- Generator: Adobe Illustrator 15.0.0, SVG Export Plug-In . SVG Version: 6.00 Build 0)  -->
<!DOCTYPE svg PUBLIC "-//W3C//DTD SVG 1.1//EN" "http://www.w3.org/Graphics/SVG/1.1/DTD/svg11.dtd">
<svg version="1.1" id="Capa_1" xmlns="http://www.w3.org/2000/svg" xmlns:xlink="http://www.w3.org/1999/xlink" x="0px" y="0px"
	 width="34px" height="34px" viewBox="0 0 34 34" enable-background="new 0 0 34 34" xml:space="preserve">
<path fill="#FFFFFF" d="M28.173,28.174c-0.867,0.867-2.272,0.867-3.14,0l-3.919-3.92c-1.613,1.031-3.518,1.648-5.575,1.648
	c-5.724,0-10.363-4.639-10.363-10.363c0-5.723,4.64-10.363,10.363-10.363c5.724,0,10.364,4.641,10.364,10.363
	c0,2.056-0.617,3.962-1.649,5.574l3.919,3.92C29.041,25.9,29.041,27.305,28.173,28.174z M15.54,8.137
	c-4.088,0-7.402,3.315-7.402,7.402c0,4.089,3.314,7.402,7.402,7.402c4.089,0,7.403-3.313,7.403-7.402
	C22.942,11.453,19.629,8.137,15.54,8.137z"/>
</svg>
