<?xml version="1.0" encoding="utf-8"?>
<!-- Generator: Adobe Illustrator 15.0.0, SVG Export Plug-In . SVG Version: 6.00 Build 0)  -->
<!DOCTYPE svg PUBLIC "-//W3C//DTD SVG 1.1//EN" "http://www.w3.org/Graphics/SVG/1.1/DTD/svg11.dtd">
<svg version="1.1" id="Capa_1" xmlns="http://www.w3.org/2000/svg" xmlns:xlink="http://www.w3.org/1999/xlink" x="0px" y="0px"
	 width="62px" height="74px" viewBox="0 0 62 74" enable-background="new 0 0 62 74" xml:space="preserve">
<g>
	<path fill="#66A8DE" d="M49.467,0.381H0.555v57.302c0,8.802,7.135,15.937,15.937,15.937h44.954V12.358
		C61.445,5.743,56.082,0.381,49.467,0.381z"/>
	<g>
		<path fill="#FFFFFF" d="M45.669,49.48c0.003-0.026,0.01-0.046,0.01-0.079V16.376c0-0.49-0.396-0.887-0.887-0.887H18.476
			c-2.407,0-4.364,1.957-4.364,4.362V52.86c0,0.006-0.001,0.012-0.001,0.018c-0.021,2.41,1.915,4.371,4.343,4.371
			c0.007,0,0.013,0,0.02,0h2.294v2.617c0,0.332,0.185,0.635,0.479,0.787c0.292,0.152,0.648,0.129,0.92-0.063l2.162-1.527
			l2.163,1.527c0.271,0.192,0.627,0.217,0.92,0.063c0.295-0.152,0.479-0.455,0.479-0.787v-2.617h16.904
			c0.358,0,0.683-0.216,0.819-0.548c0.138-0.331,0.062-0.712-0.192-0.966c-1.573-1.574-1.573-4.135,0-5.708
			C45.571,49.877,45.65,49.683,45.669,49.48z M18.476,17.263h25.43v31.25H18.486c-0.006,0-0.014,0-0.021,0
			c-0.947,0-1.838,0.309-2.581,0.854V19.852C15.885,18.424,17.048,17.263,18.476,17.263z M26.115,58.154l-1.276-0.902
			c-0.153-0.107-0.332-0.162-0.512-0.162c-0.179,0-0.358,0.055-0.512,0.162l-1.275,0.902v-4.386h3.575V58.154z M43.076,55.476H27.89
			v-2.594c0-0.49-0.397-0.887-0.887-0.887h-5.35c-0.49,0-0.887,0.396-0.887,0.887v2.594h-2.298
			c-1.218,0.079-2.585-0.979-2.584-2.604v-0.038c0.01-1.41,1.134-2.546,2.586-2.546c0.003,0,0.008,0,0.012,0h24.594
			C42.266,51.915,42.266,53.847,43.076,55.476z"/>
		<path fill="#FFFFFF" d="M21.743,31.81h5.362v10.39c0,0.49,0.396,0.887,0.887,0.887h3.807c0.49,0,0.887-0.396,0.887-0.887V31.81
			h5.361c0.49,0,0.887-0.396,0.887-0.887v-3.807c0-0.49-0.396-0.887-0.887-0.887h-5.361v-3.998c0-0.49-0.396-0.887-0.887-0.887
			h-3.807c-0.49,0-0.887,0.396-0.887,0.887v3.998h-5.362c-0.49,0-0.887,0.396-0.887,0.887v3.807
			C20.856,31.413,21.253,31.81,21.743,31.81z M22.63,28.003h5.362c0.49,0,0.887-0.396,0.887-0.887v-3.998h2.033v3.998
			c0,0.49,0.396,0.887,0.887,0.887h5.361v2.032h-5.361c-0.49,0-0.887,0.397-0.887,0.888v10.39h-2.033v-10.39
			c0-0.49-0.396-0.888-0.887-0.888H22.63V28.003z"/>
	</g>
</g>
</svg>
