<?xml version="1.0" encoding="utf-8"?>
<!-- Generator: Adobe Illustrator 15.0.0, SVG Export Plug-In . SVG Version: 6.00 Build 0)  -->
<!DOCTYPE svg PUBLIC "-//W3C//DTD SVG 1.1//EN" "http://www.w3.org/Graphics/SVG/1.1/DTD/svg11.dtd">
<svg version="1.1" id="Capa_1" xmlns="http://www.w3.org/2000/svg" xmlns:xlink="http://www.w3.org/1999/xlink" x="0px" y="0px"
	 width="34px" height="34px" viewBox="0 0 34 34" enable-background="new 0 0 34 34" xml:space="preserve">
<g>
	<g>
		<path fill="#FFC105" d="M26.658,16.063c-0.264,0-0.479,0.207-0.479,0.463v10.146c0,0.762-0.652,1.383-1.453,1.383H9.273
			c-0.801,0-1.453-0.621-1.453-1.383V16.526c0-0.256-0.214-0.463-0.479-0.463c-0.264,0-0.479,0.207-0.479,0.463v10.146
			c0,1.271,1.082,2.307,2.41,2.307h15.455c1.328,0,2.41-1.035,2.41-2.307V16.526C27.137,16.271,26.923,16.063,26.658,16.063z"/>
		<path fill="#FFC105" d="M24.727,29.479H9.273c-1.604,0-2.91-1.26-2.91-2.807V16.525c0-0.53,0.438-0.962,0.979-0.962
			s0.979,0.432,0.979,0.962v10.146c0,0.486,0.428,0.882,0.953,0.882h15.455c0.524,0,0.953-0.396,0.953-0.882V16.525
			c0-0.53,0.438-0.962,0.979-0.962s0.979,0.432,0.979,0.962v10.146C27.637,28.219,26.331,29.479,24.727,29.479z"/>
	</g>
	<g>
		<path fill="#FFC105" d="M29.73,14.318L17.998,5.38c-0.557-0.511-1.439-0.511-1.996,0L4.269,14.318
			c-0.208,0.158-0.243,0.449-0.08,0.649c0.164,0.2,0.465,0.235,0.672,0.077l11.752-8.953l0.04-0.035
			c0.191-0.182,0.502-0.182,0.693,0l11.792,8.988c0.088,0.066,0.191,0.099,0.295,0.099c0.143,0,0.282-0.061,0.377-0.176
			C29.975,14.768,29.938,14.477,29.73,14.318z"/>
		<path fill="#FFC105" d="M4.565,15.645c-0.298,0-0.576-0.132-0.763-0.36c-0.166-0.204-0.24-0.458-0.209-0.716
			c0.031-0.258,0.163-0.488,0.373-0.647l11.732-8.938c0.652-0.604,1.913-0.635,2.637,0.029l11.698,8.909
			c0.21,0.16,0.343,0.392,0.373,0.65c0.029,0.258-0.045,0.511-0.211,0.713c-0.316,0.392-0.951,0.47-1.36,0.158L17.043,6.455
			l-0.011,0.01l-0.096,0.007l-11.772,8.97C4.995,15.572,4.782,15.645,4.565,15.645z"/>
	</g>
</g>
</svg>
