<?xml version="1.0" encoding="utf-8"?>
<!-- Generator: Adobe Illustrator 15.0.0, SVG Export Plug-In . SVG Version: 6.00 Build 0)  -->
<!DOCTYPE svg PUBLIC "-//W3C//DTD SVG 1.1//EN" "http://www.w3.org/Graphics/SVG/1.1/DTD/svg11.dtd">
<svg version="1.1" id="Capa_1" xmlns="http://www.w3.org/2000/svg" xmlns:xlink="http://www.w3.org/1999/xlink" x="0px" y="0px"
	 width="94px" height="32px" viewBox="0 0 94 32" enable-background="new 0 0 94 32" xml:space="preserve">
<g>
	<g>
		<path fill="#8FFFFF" d="M59.662,27.741c0.022,1.223,0.794,1.728,1.704,1.728c0.653,0,1.053-0.117,1.388-0.26l0.164,0.654
			c-0.325,0.14-0.877,0.315-1.677,0.315c-1.53,0-2.455-1.017-2.455-2.521c0-1.507,0.898-2.696,2.357-2.696
			c1.625,0,2.054,1.438,2.054,2.356c0,0.187-0.011,0.318-0.033,0.424H59.662z M62.317,27.095c0.009-0.582-0.238-1.479-1.253-1.479
			c-0.924,0-1.32,0.85-1.391,1.479H62.317z"/>
		<path fill="#8FFFFF" d="M64.807,28.009c-0.351,0-0.604-0.279-0.604-0.641c0-0.377,0.264-0.646,0.626-0.646s0.608,0.27,0.608,0.646
			c0,0.361-0.246,0.641-0.62,0.641H64.807z"/>
		<path fill="#8FFFFF" d="M66.39,23.919c0.456-0.092,1.12-0.153,1.728-0.153c0.959,0,1.588,0.188,2.021,0.576
			c0.346,0.302,0.547,0.778,0.547,1.318c0,0.911-0.585,1.526-1.308,1.772v0.027c0.525,0.187,0.846,0.685,1.024,1.409
			c0.225,0.97,0.388,1.642,0.525,1.911h-0.932c-0.115-0.209-0.269-0.8-0.453-1.666c-0.21-0.958-0.587-1.32-1.403-1.354h-0.852v3.02
			H66.39V23.919z M67.288,27.083h0.923c0.958,0,1.565-0.525,1.565-1.328c0-0.899-0.646-1.287-1.601-1.287
			c-0.432,0-0.734,0.039-0.888,0.083V27.083z"/>
		<path fill="#8FFFFF" d="M71.957,28.446c0.023,1.217,0.795,1.719,1.704,1.719c0.653,0,1.055-0.106,1.388-0.257l0.164,0.655
			c-0.317,0.14-0.876,0.314-1.67,0.314c-1.529,0-2.462-1.018-2.462-2.521s0.899-2.696,2.357-2.696c1.632,0,2.055,1.438,2.055,2.356
			c0,0.189-0.012,0.326-0.034,0.43H71.957z M74.616,27.794c0.009-0.582-0.242-1.479-1.249-1.479c-0.932,0-1.328,0.851-1.398,1.479
			H74.616z"/>
		<path fill="#8FFFFF" d="M79.622,29.579c0,0.436,0.024,0.856,0.073,1.201h-0.816l-0.084-0.63h-0.033
			c-0.268,0.39-0.812,0.738-1.529,0.738c-1.006,0-1.528-0.71-1.528-1.435c0-1.203,1.077-1.869,3.011-1.858v-0.104
			c0-0.409-0.115-1.166-1.134-1.155c-0.478,0-0.967,0.131-1.318,0.373l-0.2-0.607c0.411-0.265,1.019-0.442,1.647-0.442
			c1.541,0,1.912,1.05,1.912,2.053V29.579z M78.736,28.229c-0.992-0.022-2.122,0.151-2.122,1.12c0,0.604,0.396,0.875,0.851,0.875
			c0.663,0,1.085-0.419,1.228-0.839c0.032-0.095,0.044-0.198,0.044-0.293V28.229z"/>
		<path fill="#8FFFFF" d="M84.878,23.442v6.046c0,0.442,0.012,0.947,0.045,1.292h-0.816l-0.046-0.872h-0.014
			c-0.28,0.56-0.885,0.98-1.695,0.98c-1.211,0-2.153-1.016-2.153-2.535c-0.005-1.676,1.036-2.693,2.243-2.693
			c0.777,0,1.292,0.362,1.512,0.758h0.016v-2.976H84.878z M83.969,27.816c0-0.125-0.004-0.271-0.038-0.396
			c-0.139-0.567-0.631-1.041-1.309-1.041c-0.943,0-1.503,0.821-1.503,1.92c0,1.024,0.511,1.857,1.48,1.857
			c0.606,0,1.167-0.412,1.331-1.089c0.034-0.117,0.038-0.243,0.038-0.385V27.816z"/>
		<path fill="#8FFFFF" d="M86.391,28.446c0.016,1.217,0.795,1.719,1.704,1.719c0.646,0,1.053-0.106,1.38-0.257l0.165,0.655
			c-0.316,0.14-0.877,0.314-1.671,0.314c-1.529,0-2.461-1.018-2.461-2.521s0.898-2.696,2.356-2.696c1.634,0,2.055,1.438,2.055,2.356
			c0,0.189-0.012,0.326-0.024,0.43H86.391z M89.043,27.794c0.011-0.582-0.235-1.479-1.249-1.479c-0.933,0-1.319,0.851-1.399,1.479
			H89.043z"/>
		<path fill="#8FFFFF" d="M90.527,27.34c0-0.593-0.006-1.098-0.037-1.563h0.793l0.044,0.98h0.026
			c0.233-0.669,0.791-1.098,1.398-1.098c0.094,0,0.164,0.014,0.247,0.022v0.863c-0.094-0.012-0.187-0.022-0.313-0.022
			c-0.634,0-1.09,0.484-1.215,1.156c-0.023,0.137-0.035,0.278-0.035,0.42v2.681h-0.908V27.34z"/>
	</g>
	<g>
		<path fill="#8FFFFF" d="M1.001,2.404c1.167-0.223,2.698-0.393,4.642-0.393c2.396,0,4.143,0.557,5.26,1.56
			c1.024,0.889,1.667,2.251,1.667,3.892c0,1.696-0.499,3.034-1.472,4.004c-1.279,1.364-3.367,2.059-5.733,2.059
			c-0.724,0-1.387-0.025-1.945-0.165v7.539H1.001V2.404z M3.419,11.386c0.528,0.139,1.199,0.192,2.006,0.192
			c2.917,0,4.695-1.418,4.695-3.975c0-2.478-1.751-3.672-4.417-3.672c-1.063,0-1.869,0.083-2.284,0.194V11.386z"/>
		<path fill="#8FFFFF" d="M23.079,17.668c0,1.168,0.062,2.312,0.197,3.231H21.08l-0.224-1.702h-0.082
			c-0.723,1.063-2.201,2.005-4.115,2.005c-2.727,0-4.114-1.922-4.114-3.866c0-3.253,2.887-5.033,8.086-5.006v-0.278
			c0-1.111-0.301-3.143-3.055-3.115c-1.278,0-2.59,0.36-3.531,1.004l-0.557-1.642c1.114-0.695,2.75-1.169,4.447-1.169
			c4.143,0,5.144,2.811,5.144,5.507V17.668z M20.691,14.026c-2.668-0.056-5.705,0.418-5.705,3.031c0,1.613,1.063,2.337,2.283,2.337
			c1.779,0,2.916-1.107,3.308-2.254c0.084-0.25,0.114-0.528,0.114-0.776V14.026z"/>
		<path fill="#8FFFFF" d="M37.24,1.153V17.42c0,1.197,0.023,2.56,0.104,3.479h-2.191l-0.113-2.338h-0.053
			c-0.754,1.502-2.367,2.641-4.563,2.641c-3.249,0-5.784-2.752-5.784-6.841C24.61,9.855,27.42,7.13,30.677,7.13
			c2.082,0,3.474,0.974,4.059,2.029h0.054V1.153H37.24z M34.789,12.915c0-0.335-0.028-0.722-0.111-1.059
			c-0.361-1.529-1.696-2.808-3.534-2.808c-2.524,0-4.032,2.223-4.032,5.173c0,2.752,1.364,5.006,3.979,5.006
			c1.643,0,3.143-1.114,3.588-2.947c0.083-0.304,0.111-0.641,0.111-1.027V12.915z"/>
		<g>
			<g>
				<g>
					<path fill="#8FFFFF" d="M89.03,1.299c1.011,0,1.813,0.771,1.813,1.758c0,0.985-0.803,1.769-1.826,1.769
						c-1.014,0-1.83-0.783-1.83-1.769c0-0.987,0.816-1.758,1.83-1.758H89.03z M89.005,1.649c-0.768,0-1.362,0.636-1.362,1.407
						c0,0.785,0.595,1.403,1.388,1.403c0.774,0.012,1.357-0.618,1.357-1.393c0-0.782-0.583-1.418-1.37-1.418H89.005z M88.733,3.97
						h-0.408V2.213c0.161-0.023,0.392-0.056,0.68-0.056c0.343,0,0.493,0.056,0.614,0.139c0.104,0.072,0.186,0.206,0.186,0.376
						c0,0.214-0.169,0.354-0.371,0.415v0.022c0.174,0.055,0.261,0.195,0.312,0.429c0.06,0.268,0.099,0.365,0.135,0.432h-0.433
						c-0.061-0.066-0.088-0.214-0.146-0.432c-0.031-0.181-0.137-0.268-0.37-0.268h-0.197V3.97z M88.745,2.984h0.197
						c0.232,0,0.417-0.075,0.417-0.257c0-0.165-0.12-0.271-0.381-0.271c-0.111,0-0.186,0.011-0.233,0.023V2.984z"/>
				</g>
			</g>
			<path fill="#8FFFFF" d="M39.928,2.382c1.061-0.245,2.764-0.412,4.437-0.412c2.431,0,3.999,0.412,5.142,1.352
				c0.978,0.715,1.59,1.821,1.59,3.281c0,1.821-1.227,3.396-3.18,4.081v0.084C49.703,11.18,51.8,12.645,51.8,15.4
				c0,1.602-0.644,2.813-1.62,3.725c-1.287,1.187-3.407,1.74-6.48,1.74c-1.682,0-2.961-0.113-3.771-0.225V2.382z M42.359,9.998
				h2.203c2.543,0,4.05-1.354,4.05-3.145c0-2.151-1.65-3.037-4.104-3.037c-1.12,0-1.763,0.081-2.148,0.168V9.998z M42.359,18.877
				c0.499,0.084,1.172,0.114,2.036,0.114c2.514,0,4.83-0.911,4.83-3.616c0-2.51-2.202-3.585-4.861-3.585h-2.005V18.877z"/>
			<path fill="#8FFFFF" d="M59.197,20.999c-3.627,0-6.481-2.644-6.481-6.864c0-4.471,2.991-7.093,6.709-7.093
				c3.88,0,6.503,2.786,6.503,6.843c0,4.964-3.49,7.114-6.699,7.114H59.197z M59.311,19.184c2.348,0,4.104-2.182,4.104-5.218
				c0-2.257-1.144-5.102-4.051-5.102c-2.878,0-4.134,2.649-4.134,5.185c0,2.925,1.68,5.135,4.051,5.135H59.311z"/>
			<path fill="#8FFFFF" d="M73.138,20.999c-3.633,0-6.482-2.644-6.482-6.864c0-4.471,2.99-7.093,6.709-7.093
				c3.877,0,6.504,2.786,6.504,6.843c0,4.964-3.491,7.114-6.702,7.114H73.138z M73.25,19.184c2.348,0,4.104-2.182,4.104-5.218
				c0-2.257-1.145-5.102-4.051-5.102c-2.878,0-4.135,2.649-4.135,5.185c0,2.925,1.682,5.135,4.051,5.135H73.25z"/>
			<path fill="#8FFFFF" d="M84.032,13.47h0.054c0.332-0.465,0.781-1.045,1.173-1.517l3.998-4.604h2.93l-5.225,5.487l5.952,7.864
				h-2.991L85.289,14.3l-1.257,1.376v5.025h-2.461V1.111h2.461V13.47z"/>
		</g>
	</g>
</g>
</svg>
