<?xml version="1.0" encoding="utf-8"?>
<!-- Generator: Adobe Illustrator 15.0.0, SVG Export Plug-In . SVG Version: 6.00 Build 0)  -->
<!DOCTYPE svg PUBLIC "-//W3C//DTD SVG 1.1//EN" "http://www.w3.org/Graphics/SVG/1.1/DTD/svg11.dtd">
<svg version="1.1" id="Capa_1" xmlns="http://www.w3.org/2000/svg" xmlns:xlink="http://www.w3.org/1999/xlink" x="0px" y="0px"
	 width="130px" height="42px" viewBox="0 0 130 42" enable-background="new 0 0 130 42" xml:space="preserve">
<g>
	<g>
		<path fill="#8FFFFF" d="M82.793,37.499c0.031,1.717,1.116,2.426,2.395,2.426c0.917,0,1.479-0.164,1.949-0.364l0.23,0.92
			c-0.456,0.196-1.231,0.442-2.355,0.442c-2.15,0-3.449-1.428-3.449-3.542c0-2.118,1.262-3.788,3.312-3.788
			c2.284,0,2.887,2.018,2.887,3.311c0,0.262-0.016,0.446-0.047,0.596H82.793z M86.523,36.589c0.012-0.816-0.334-2.078-1.76-2.078
			c-1.299,0-1.855,1.194-1.954,2.078H86.523z"/>
		<path fill="#8FFFFF" d="M90.021,37.874c-0.492,0-0.848-0.392-0.848-0.9c0-0.529,0.37-0.908,0.879-0.908
			c0.51,0,0.855,0.379,0.855,0.908c0,0.509-0.346,0.9-0.871,0.9H90.021z"/>
		<path fill="#8FFFFF" d="M92.246,32.128c0.641-0.13,1.574-0.217,2.428-0.217c1.347,0,2.231,0.264,2.84,0.811
			c0.486,0.424,0.77,1.094,0.77,1.852c0,1.281-0.822,2.146-1.838,2.491v0.038c0.738,0.262,1.188,0.963,1.439,1.98
			c0.316,1.363,0.545,2.307,0.738,2.686h-1.309c-0.162-0.294-0.378-1.123-0.639-2.341c-0.293-1.346-0.823-1.855-1.971-1.903h-1.196
			v4.244h-1.263V32.128z M93.509,36.573h1.296c1.348,0,2.201-0.738,2.201-1.867c0-1.264-0.908-1.808-2.25-1.808
			c-0.607,0-1.031,0.055-1.247,0.117V36.573z"/>
		<path fill="#8FFFFF" d="M100.069,38.488c0.032,1.711,1.116,2.415,2.394,2.415c0.918,0,1.482-0.148,1.95-0.359l0.231,0.92
			c-0.446,0.195-1.231,0.442-2.348,0.442c-2.148,0-3.458-1.43-3.458-3.544c0-2.113,1.263-3.789,3.312-3.789
			c2.294,0,2.888,2.021,2.888,3.313c0,0.266-0.017,0.458-0.048,0.603H100.069z M103.807,37.572c0.012-0.818-0.341-2.079-1.756-2.079
			c-1.31,0-1.865,1.195-1.965,2.079H103.807z"/>
		<path fill="#8FFFFF" d="M110.84,40.081c0,0.611,0.034,1.203,0.103,1.688h-1.146l-0.118-0.885h-0.047
			c-0.375,0.548-1.141,1.037-2.148,1.037c-1.414,0-2.147-0.998-2.147-2.016c0-1.691,1.513-2.626,4.229-2.611v-0.145
			c0-0.576-0.162-1.641-1.594-1.624c-0.67,0-1.357,0.184-1.852,0.524l-0.281-0.854c0.578-0.373,1.432-0.623,2.315-0.623
			c2.165,0,2.687,1.477,2.687,2.886V40.081z M109.596,38.183c-1.396-0.031-2.982,0.213-2.982,1.574c0,0.85,0.556,1.229,1.195,1.229
			c0.932,0,1.525-0.587,1.725-1.178c0.045-0.133,0.063-0.278,0.063-0.412V38.183z"/>
		<path fill="#8FFFFF" d="M118.225,31.458v8.495c0,0.622,0.017,1.331,0.063,1.815h-1.147l-0.064-1.225h-0.02
			c-0.394,0.785-1.242,1.377-2.381,1.377c-1.701,0-3.027-1.428-3.027-3.562c-0.006-2.356,1.457-3.786,3.154-3.786
			c1.092,0,1.814,0.51,2.123,1.065h0.021v-4.181H118.225z M116.947,37.604c0-0.178-0.006-0.381-0.053-0.557
			c-0.195-0.799-0.887-1.464-1.84-1.464c-1.325,0-2.111,1.154-2.111,2.697c0,1.44,0.718,2.61,2.08,2.61
			c0.854,0,1.64-0.58,1.871-1.53c0.047-0.164,0.053-0.341,0.053-0.54V37.604z"/>
		<path fill="#8FFFFF" d="M120.352,38.488c0.021,1.711,1.117,2.415,2.394,2.415c0.907,0,1.479-0.148,1.939-0.359l0.231,0.92
			c-0.445,0.195-1.231,0.442-2.348,0.442c-2.149,0-3.459-1.43-3.459-3.544c0-2.113,1.264-3.789,3.313-3.789
			c2.296,0,2.887,2.021,2.887,3.313c0,0.266-0.016,0.458-0.035,0.603H120.352z M124.078,37.572c0.016-0.818-0.331-2.079-1.756-2.079
			c-1.311,0-1.854,1.195-1.966,2.079H124.078z"/>
		<path fill="#8FFFFF" d="M126.164,36.935c0-0.834-0.008-1.543-0.053-2.197h1.113l0.063,1.379h0.037
			c0.328-0.939,1.111-1.543,1.966-1.543c0.131,0,0.23,0.02,0.347,0.031v1.214c-0.132-0.016-0.263-0.03-0.441-0.03
			c-0.89,0-1.529,0.68-1.706,1.624c-0.034,0.192-0.05,0.392-0.05,0.591v3.766h-1.275V36.935z"/>
	</g>
	<g>
		<path fill="#8FFFFF" d="M0.363,1.896c1.64-0.313,3.791-0.553,6.521-0.553c3.368,0,5.822,0.784,7.393,2.192
			c1.438,1.249,2.342,3.164,2.342,5.468c0,2.384-0.701,4.263-2.067,5.626c-1.799,1.917-4.732,2.892-8.057,2.892
			c-1.018,0-1.949-0.034-2.734-0.231v10.593H0.363V1.896z M3.761,14.516c0.742,0.195,1.686,0.27,2.819,0.27
			c4.098,0,6.598-1.992,6.598-5.585c0-3.481-2.461-5.16-6.207-5.16c-1.493,0-2.627,0.117-3.21,0.273V14.516z"/>
		<path fill="#8FFFFF" d="M31.388,23.343c0,1.642,0.086,3.249,0.276,4.541h-3.086l-0.313-2.391h-0.116
			c-1.016,1.494-3.093,2.816-5.782,2.816c-3.831,0-5.781-2.7-5.781-5.432c0-4.572,4.056-7.074,11.361-7.035v-0.392
			c0-1.562-0.422-4.416-4.292-4.377c-1.796,0-3.638,0.505-4.961,1.41l-0.783-2.307c1.565-0.977,3.864-1.643,6.25-1.643
			c5.82,0,7.228,3.949,7.228,7.738V23.343z M28.032,18.227c-3.749-0.078-8.016,0.587-8.016,4.26c0,2.267,1.491,3.284,3.207,3.284
			c2.5,0,4.097-1.558,4.648-3.167c0.118-0.353,0.16-0.743,0.16-1.092V18.227z"/>
		<path fill="#8FFFFF" d="M51.286,0.138v22.857c0,1.683,0.032,3.597,0.146,4.889h-3.08L48.193,24.6h-0.075
			c-1.059,2.11-3.325,3.71-6.412,3.71c-4.565,0-8.127-3.867-8.127-9.613c-0.041-6.331,3.908-10.161,8.483-10.161
			c2.927,0,4.882,1.369,5.704,2.852h0.076V0.138H51.286z M47.843,16.666c0-0.471-0.041-1.015-0.157-1.488
			c-0.509-2.15-2.384-3.946-4.967-3.946c-3.547,0-5.665,3.124-5.665,7.269c0,3.868,1.916,7.035,5.591,7.035
			c2.308,0,4.415-1.565,5.041-4.141c0.116-0.426,0.157-0.901,0.157-1.444V16.666z"/>
		<g>
			<g>
				<g>
					<path fill="#8FFFFF" d="M124.061,0.342c1.419,0,2.548,1.083,2.548,2.47c0,1.385-1.129,2.485-2.565,2.485
						c-1.426,0-2.572-1.1-2.572-2.485c0-1.387,1.146-2.47,2.572-2.47H124.061z M124.024,0.835c-1.079,0-1.913,0.893-1.913,1.977
						c0,1.104,0.834,1.973,1.949,1.973c1.088,0.016,1.907-0.869,1.907-1.957c0-1.1-0.819-1.993-1.925-1.993H124.024z M123.643,4.095
						h-0.573V1.626c0.226-0.032,0.55-0.078,0.955-0.078c0.481,0,0.693,0.078,0.863,0.195c0.145,0.102,0.261,0.29,0.261,0.528
						c0,0.301-0.237,0.497-0.521,0.583v0.031c0.243,0.078,0.367,0.274,0.438,0.603c0.084,0.375,0.139,0.514,0.189,0.606h-0.608
						c-0.084-0.093-0.123-0.301-0.206-0.606c-0.043-0.254-0.191-0.376-0.52-0.376h-0.277V4.095z M123.658,2.71h0.279
						c0.326,0,0.585-0.106,0.585-0.361c0-0.231-0.169-0.38-0.535-0.38c-0.156,0-0.261,0.016-0.329,0.032V2.71z"/>
				</g>
			</g>
			<path fill="#8FFFFF" d="M55.063,1.864c1.489-0.344,3.884-0.579,6.234-0.579c3.415,0,5.619,0.579,7.225,1.899
				c1.373,1.005,2.234,2.56,2.234,4.611c0,2.561-1.724,4.772-4.468,5.735v0.118c2.511,0.58,5.456,2.638,5.456,6.51
				c0,2.25-0.903,3.953-2.275,5.233c-1.809,1.668-4.788,2.446-9.107,2.446c-2.362,0-4.16-0.16-5.299-0.316V1.864z M58.479,12.567
				h3.096c3.574,0,5.691-1.903,5.691-4.42c0-3.022-2.319-4.267-5.768-4.267c-1.573,0-2.478,0.114-3.02,0.235V12.567z M58.479,25.042
				c0.702,0.117,1.647,0.16,2.861,0.16c3.533,0,6.788-1.279,6.788-5.081c0-3.526-3.096-5.037-6.831-5.037h-2.818V25.042z"/>
			<path fill="#8FFFFF" d="M82.14,28.024c-5.097,0-9.107-3.715-9.107-9.645c0-6.283,4.202-9.966,9.427-9.966
				c5.453,0,9.138,3.915,9.138,9.614c0,6.976-4.904,9.997-9.414,9.997H82.14z M82.299,25.473c3.299,0,5.768-3.065,5.768-7.332
				c0-3.171-1.607-7.168-5.692-7.168c-4.044,0-5.809,3.723-5.809,7.285c0,4.11,2.36,7.214,5.691,7.214H82.299z"/>
			<path fill="#8FFFFF" d="M101.728,28.024c-5.104,0-9.108-3.715-9.108-9.645c0-6.283,4.202-9.966,9.428-9.966
				c5.447,0,9.139,3.915,9.139,9.614c0,6.976-4.905,9.997-9.417,9.997H101.728z M101.887,25.473c3.297,0,5.766-3.065,5.766-7.332
				c0-3.171-1.607-7.168-5.691-7.168c-4.044,0-5.809,3.723-5.809,7.285c0,4.11,2.361,7.214,5.691,7.214H101.887z"/>
			<path fill="#8FFFFF" d="M117.037,17.444h0.074c0.469-0.653,1.099-1.467,1.648-2.13l5.619-6.47h4.115l-7.34,7.711l8.363,11.05
				h-4.203l-6.512-8.995l-1.766,1.933v7.062h-3.458V0.079h3.458V17.444z"/>
		</g>
	</g>
</g>
</svg>
